<svg width="787" height="112" viewBox="0 0 787 112" fill="none" xmlns="http://www.w3.org/2000/svg">
<path d="M289.309 24.457C295.573 24.457 300.144 25.8073 303.021 28.5078C305.899 31.1862 307.338 34.8828 307.338 39.5977C307.338 41.7227 307.017 43.7591 306.375 45.707C305.733 47.6328 304.682 49.3483 303.221 50.8535C301.782 52.3587 299.856 53.554 297.443 54.4395C295.031 55.3027 292.053 55.7344 288.512 55.7344H284.096V73H273.803V24.457H289.309ZM288.777 32.8906H284.096V47.3008H287.482C289.408 47.3008 291.079 47.0462 292.496 46.5371C293.913 46.028 295.008 45.2311 295.783 44.1465C296.558 43.0618 296.945 41.6673 296.945 39.9629C296.945 37.5723 296.281 35.8014 294.953 34.6504C293.625 33.4772 291.566 32.8906 288.777 32.8906ZM349.771 35.8789V73H342.002L340.641 68.252H340.109C339.312 69.5137 338.316 70.543 337.121 71.3398C335.926 72.1367 334.609 72.7233 333.17 73.0996C331.731 73.4759 330.237 73.6641 328.688 73.6641C326.031 73.6641 323.718 73.1992 321.748 72.2695C319.778 71.3177 318.24 69.8457 317.133 67.8535C316.048 65.8613 315.506 63.2715 315.506 60.084V35.8789H325.633V57.5605C325.633 60.2168 326.109 62.2201 327.061 63.5703C328.012 64.9206 329.529 65.5957 331.609 65.5957C333.668 65.5957 335.284 65.1309 336.457 64.2012C337.63 63.2493 338.449 61.8659 338.914 60.0508C339.401 58.2135 339.645 55.9779 339.645 53.3438V35.8789H349.771ZM370.523 73H360.396V21.3359H370.523V73ZM407.08 61.9766C407.08 64.5 406.482 66.6361 405.287 68.3848C404.114 70.1113 402.354 71.4284 400.008 72.3359C397.661 73.2214 394.74 73.6641 391.242 73.6641C388.652 73.6641 386.428 73.498 384.568 73.166C382.731 72.834 380.872 72.2806 378.99 71.5059V63.1387C381.005 64.0462 383.163 64.7988 385.465 65.3965C387.789 65.972 389.826 66.2598 391.574 66.2598C393.544 66.2598 394.95 65.972 395.791 65.3965C396.654 64.7988 397.086 64.0241 397.086 63.0723C397.086 62.4525 396.909 61.8991 396.555 61.4121C396.223 60.903 395.492 60.3385 394.363 59.7188C393.234 59.0768 391.464 58.2467 389.051 57.2285C386.727 56.2546 384.812 55.2695 383.307 54.2734C381.824 53.2773 380.717 52.1042 379.986 50.7539C379.278 49.3815 378.924 47.6439 378.924 45.541C378.924 42.11 380.252 39.5312 382.908 37.8047C385.587 36.056 389.161 35.1816 393.633 35.1816C395.935 35.1816 398.126 35.4141 400.207 35.8789C402.31 36.3438 404.468 37.0853 406.682 38.1035L403.627 45.4082C401.79 44.6113 400.052 43.9583 398.414 43.4492C396.798 42.9401 395.149 42.6855 393.467 42.6855C391.984 42.6855 390.866 42.8848 390.113 43.2832C389.361 43.6816 388.984 44.2904 388.984 45.1094C388.984 45.707 389.173 46.2383 389.549 46.7031C389.947 47.168 390.7 47.6882 391.807 48.2637C392.936 48.8171 394.585 49.5365 396.754 50.4219C398.857 51.2852 400.683 52.1927 402.232 53.1445C403.782 54.0742 404.977 55.2363 405.818 56.6309C406.66 58.0033 407.08 59.7852 407.08 61.9766ZM430.289 35.1816C433.72 35.1816 436.675 35.8457 439.154 37.1738C441.633 38.4798 443.548 40.3835 444.898 42.8848C446.249 45.3861 446.924 48.4408 446.924 52.0488V56.9629H422.984C423.095 59.8184 423.947 62.0651 425.541 63.7031C427.157 65.319 429.393 66.127 432.248 66.127C434.617 66.127 436.786 65.8835 438.756 65.3965C440.726 64.9095 442.751 64.179 444.832 63.2051V71.041C442.995 71.9486 441.069 72.6126 439.055 73.0332C437.062 73.4538 434.639 73.6641 431.783 73.6641C428.064 73.6641 424.766 72.9779 421.889 71.6055C419.033 70.2331 416.786 68.1413 415.148 65.3301C413.533 62.5189 412.725 58.9772 412.725 54.7051C412.725 50.3665 413.455 46.7585 414.916 43.8809C416.399 40.9811 418.458 38.8118 421.092 37.373C423.726 35.9121 426.792 35.1816 430.289 35.1816ZM430.355 42.3867C428.385 42.3867 426.747 43.0176 425.441 44.2793C424.158 45.541 423.416 47.5221 423.217 50.2227H437.428C437.406 48.7174 437.129 47.3783 436.598 46.2051C436.089 45.0319 435.314 44.1022 434.273 43.416C433.255 42.7298 431.949 42.3867 430.355 42.3867ZM485.672 73L482.152 61.4453H464.455L460.936 73H449.846L466.979 24.2578H479.562L496.762 73H485.672ZM479.695 52.8125L476.176 41.5234C475.954 40.7708 475.656 39.8079 475.279 38.6348C474.925 37.4395 474.56 36.2331 474.184 35.0156C473.829 33.776 473.542 32.7025 473.32 31.7949C473.099 32.7025 472.789 33.8314 472.391 35.1816C472.014 36.5098 471.649 37.7715 471.295 38.9668C470.941 40.1621 470.686 41.0143 470.531 41.5234L467.045 52.8125H479.695ZM502.904 73V24.457H513.197V73H502.904Z" fill="#121212"/>
<rect x="431.5" y="4" width="108" height="108" rx="50" fill="white" fill-opacity="0.1"/>
<rect x="255.5" y="29" width="36" height="36" rx="18" fill="white" fill-opacity="0.1"/>
<rect x="348.5" y="37" width="21" height="21" rx="10.5" fill="white" fill-opacity="0.1"/>
</svg>
